<svg width="28" height="26" viewBox="0 0 28 26" fill="none" xmlns="http://www.w3.org/2000/svg">
    <path d="M7.25 0.208008C3.25162 0.208008 0 3.45963 0 7.45801C0 9.59797 0.937667 11.5191 2.41667 12.8483V20.7497C2.41667 21.4167 2.958 21.958 3.625 21.958H3.68636C3.9824 24.0025 5.72992 25.583 7.85417 25.583C9.97842 25.583 11.7259 24.0025 12.022 21.958H16.978C17.2741 24.0025 19.0192 25.583 21.1435 25.583C23.2677 25.583 25.0152 24.0025 25.3113 21.958H26.5833C27.2503 21.958 27.7917 21.4167 27.7917 20.7497V17.4952C27.7917 16.8222 27.6064 16.1658 27.2536 15.593L24.7921 11.5999C24.1275 10.5196 22.9727 9.87468 21.7052 9.87468H19.3333V7.45801C19.3333 6.79101 18.792 6.24968 18.125 6.24968H14.3914C13.8126 2.82647 10.8351 0.208008 7.25 0.208008ZM7.25 2.62467C9.91558 2.62467 12.0833 4.79243 12.0833 7.45801C12.0833 10.1236 9.91558 12.2913 7.25 12.2913C4.58442 12.2913 2.41667 10.1236 2.41667 7.45801C2.41667 4.79243 4.58442 2.62467 7.25 2.62467ZM6.04167 5.04134V9.16667L8.10197 11.227L9.81063 9.51831L8.45833 8.16602V5.04134H6.04167ZM19.3333 12.2913H21.7052C22.1281 12.2913 22.513 12.5071 22.7341 12.8672L25.1956 16.8604C25.3141 17.0513 25.375 17.2705 25.375 17.4952V19.5413H24.9502C24.2687 18.1179 22.8266 17.1247 21.1458 17.1247C20.4945 17.1247 19.8843 17.2861 19.3333 17.5495V12.2913ZM7.85417 19.5413C8.85346 19.5413 9.66667 20.3546 9.66667 21.3538C9.66667 22.3531 8.85346 23.1663 7.85417 23.1663C6.85487 23.1663 6.04167 22.3531 6.04167 21.3538C6.04167 20.3546 6.85487 19.5413 7.85417 19.5413ZM21.1458 19.5413C22.1451 19.5413 22.9583 20.3546 22.9583 21.3538C22.9583 22.3531 22.1451 23.1663 21.1458 23.1663C20.1465 23.1663 19.3333 22.3531 19.3333 21.3538C19.3333 20.3546 20.1465 19.5413 21.1458 19.5413Z" fill="#FF7800"></path>
</svg>