<svg width="26" height="26" viewBox="0 0 26 26" fill="none" xmlns="http://www.w3.org/2000/svg">
    <path fill-rule="evenodd" clip-rule="evenodd" d="M4.27615 7.01219C4.27615 5.50016 5.50126 4.27505 7.01329 4.27384H8.25898C8.98171 4.27384 9.67416 3.98693 10.1875 3.47848L11.0579 2.60686C12.1244 1.53427 13.8701 1.54033 14.9426 2.60686L15.8143 3.47848C16.3276 3.98814 17.02 4.27384 17.7427 4.27384H18.9872C20.4992 4.27384 21.7256 5.49895 21.7256 7.01219V8.25546C21.7256 8.97818 22.0113 9.67185 22.5209 10.1851L23.3925 11.0568C24.4651 12.1233 24.4712 13.8569 23.4047 14.9294L23.4034 14.9306L23.3925 14.9415L22.5209 15.8132C22.0113 16.3252 21.7256 17.0177 21.7256 17.7404V18.9861C21.7256 20.4981 20.5005 21.7233 18.9884 21.7233H17.7403C17.0176 21.7233 16.3239 22.0102 15.8118 22.5198L14.9402 23.3902C13.8749 24.4628 12.1426 24.4689 11.07 23.4048L11.0663 23.4011L11.0554 23.3902L10.185 22.5198C9.67295 22.0102 8.97928 21.7245 8.25656 21.7233H7.01329C5.50126 21.7233 4.27615 20.4981 4.27615 18.9861V17.738C4.27615 17.0153 3.98924 16.3228 3.47958 15.8107L2.60917 14.9391C1.53659 13.8738 1.53053 12.1414 2.59585 11.0689L2.59827 11.0652L2.60917 11.0543L3.47958 10.1827C3.98924 9.66943 4.27615 8.97697 4.27615 8.25304V7.01219Z" fill="#FF7800"></path>
    <path d="M14.9426 2.60686C13.8701 1.54033 12.1244 1.53427 11.0579 2.60686L10.1875 3.47848C9.67416 3.98693 8.98171 4.27384 8.25898 4.27384H7.01329C5.50126 4.27505 4.27615 5.50016 4.27615 7.01219V8.25304C4.27615 8.97697 3.98924 9.66943 3.47958 10.1827L2.60917 11.0543L2.59827 11.0652L2.59585 11.0689C1.53053 12.1414 1.53659 13.8738 2.60917 14.9391L3.47958 15.8107C3.98924 16.3228 4.27615 17.0153 4.27615 17.738V18.9861C4.27615 20.4981 5.50126 21.7233 7.01329 21.7233H8.25656C8.97928 21.7245 9.67295 22.0102 10.185 22.5198L11.0554 23.3902L11.0663 23.4011L11.07 23.4048C12.1426 24.4689 13.8749 24.4628 14.9402 23.3902L15.8118 22.5198C16.3239 22.0102 17.0176 21.7233 17.7403 21.7233H18.9884C20.5005 21.7233 21.7256 20.4981 21.7256 18.9861V17.7404C21.7256 17.0177 22.0113 16.3252 22.5209 15.8132L23.3925 14.9415L23.4034 14.9306L23.4047 14.9294C24.4712 13.8569 24.4651 12.1233 23.3925 11.0568L22.5209 10.1851C22.0113 9.67185 21.7256 8.97818 21.7256 8.25546V7.01219C21.7256 5.49895 20.4992 4.27384 18.9872 4.27384H17.7427C17.02 4.27384 16.3276 3.98814 15.8143 3.47848L14.9426 2.60686ZM14.9426 2.60686L14.9317 2.59717" stroke="#FF7800" stroke-width="1.76" stroke-linecap="round" stroke-linejoin="round"></path>
    <path d="M9.88672 16.1101L16.1091 9.8877" stroke="white" stroke-width="1.76" stroke-linecap="round" stroke-linejoin="round"></path>
    <path d="M16.0178 16.0242H16.0287" stroke="white" stroke-width="3.2" stroke-linecap="round" stroke-linejoin="round"></path>
    <path d="M9.97094 9.97053H9.98184" stroke="white" stroke-width="3.2" stroke-linecap="round" stroke-linejoin="round"></path>
</svg>