<svg width="20" height="20" viewBox="0 0 20 20" fill="none" xmlns="http://www.w3.org/2000/svg">
    <path fill-rule="evenodd" clip-rule="evenodd" d="M1.60156 4.86628C1.60156 2.41608 1.6278 1.59961 4.86823 1.59961C8.10866 1.59961 8.1349 2.41608 8.1349 4.86628C8.1349 7.31647 8.14523 8.13294 4.86823 8.13294C1.59123 8.13294 1.60156 7.31647 1.60156 4.86628Z" fill="#FF7800" stroke="#FF7800" stroke-width="1.32" stroke-linecap="round" stroke-linejoin="round"></path>
    <path fill-rule="evenodd" clip-rule="evenodd" d="M11.8672 4.86628C11.8672 2.41608 11.8934 1.59961 15.1339 1.59961C18.3743 1.59961 18.4005 2.41608 18.4005 4.86628C18.4005 7.31647 18.4109 8.13294 15.1339 8.13294C11.8569 8.13294 11.8672 7.31647 11.8672 4.86628Z" fill="white" stroke="#FF7800" stroke-width="1.32" stroke-linecap="round" stroke-linejoin="round"></path>
    <path fill-rule="evenodd" clip-rule="evenodd" d="M1.60156 15.1329C1.60156 12.6827 1.6278 11.8662 4.86823 11.8662C8.10866 11.8662 8.1349 12.6827 8.1349 15.1329C8.1349 17.5831 8.14523 18.3995 4.86823 18.3995C1.59123 18.3995 1.60156 17.5831 1.60156 15.1329Z" fill="#FF7800" stroke="#FF7800" stroke-width="1.32" stroke-linecap="round" stroke-linejoin="round"></path>
    <path fill-rule="evenodd" clip-rule="evenodd" d="M11.8672 15.1329C11.8672 12.6827 11.8934 11.8662 15.1339 11.8662C18.3743 11.8662 18.4005 12.6827 18.4005 15.1329C18.4005 17.5831 18.4109 18.3995 15.1339 18.3995C11.8569 18.3995 11.8672 17.5831 11.8672 15.1329Z" fill="#FF7800" stroke="#FF7800" stroke-width="1.32" stroke-linecap="round" stroke-linejoin="round"></path>
</svg>