<svg width="18" height="21" viewBox="0 0 18 21" fill="none" xmlns="http://www.w3.org/2000/svg">
    <path fill-rule="evenodd" clip-rule="evenodd" d="M5.0064 20.2127H13.0036C15.9412 20.2127 18.1948 19.1517 17.5547 14.8813L16.8093 9.0938C16.4147 6.96297 15.0555 6.14746 13.863 6.14746H4.11197C2.90187 6.14746 1.62161 7.02435 1.16563 9.0938L0.420271 14.8813C-0.1234 18.6694 2.06882 20.2127 5.0064 20.2127Z" fill="#FF7800"></path>
    <path d="M4.87261 5.93778C4.87261 3.65192 6.72566 1.79887 9.01152 1.79887V1.79887C10.1123 1.7942 11.1695 2.2282 11.9495 3.00491C12.7295 3.78161 13.168 4.83702 13.168 5.93778V5.93778" stroke="#FF7800" stroke-width="2" stroke-linecap="round" stroke-linejoin="round"></path>
    <path fill-rule="evenodd" clip-rule="evenodd" d="M6.17245 10.2519H6.21629H6.17245Z" fill="#FF7800"></path>
    <path d="M6.17245 10.2519H6.21629" stroke="white" stroke-width="2" stroke-linecap="round" stroke-linejoin="round"></path>
    <path fill-rule="evenodd" clip-rule="evenodd" d="M11.7623 10.2519H11.8061H11.7623Z" fill="#00CCFF"></path>
    <path d="M11.7623 10.2519H11.8061" stroke="white" stroke-width="2" stroke-linecap="round" stroke-linejoin="round"></path>
</svg>